<svg xmlns="http://www.w3.org/2000/svg" viewBox="0 0 512 512" role="img" aria-labelledby="title desc">
  <title id="title">Cultivo profesional cannabis - identidad visual</title>
  <desc id="desc">Ilustración con fondo rosa, trazos amarillos y silueta azul inspirada en el logo proporcionado.</desc>
  <defs>
    <linearGradient id="backgroundGradient" x1="0%" y1="0%" x2="100%" y2="100%">
      <stop offset="0%" stop-color="#ff4dc8" />
      <stop offset="40%" stop-color="#ff6bd9" />
      <stop offset="100%" stop-color="#ff9aea" />
    </linearGradient>
    <linearGradient id="swirlGradient" x1="10%" y1="30%" x2="90%" y2="70%">
      <stop offset="0%" stop-color="#ffe66d" />
      <stop offset="50%" stop-color="#ffd43b" />
      <stop offset="100%" stop-color="#ffcb1f" />
    </linearGradient>
    <linearGradient id="silhouetteGradient" x1="40%" y1="10%" x2="80%" y2="90%">
      <stop offset="0%" stop-color="#0d47a1" />
      <stop offset="45%" stop-color="#1565c0" />
      <stop offset="100%" stop-color="#0a2c8b" />
    </linearGradient>
    <linearGradient id="profileHighlight" x1="30%" y1="20%" x2="70%" y2="80%">
      <stop offset="0%" stop-color="#4fc3f7" stop-opacity="0.95" />
      <stop offset="100%" stop-color="#1a4fd9" stop-opacity="0.2" />
    </linearGradient>
    <linearGradient id="collarGradient" x1="20%" y1="0%" x2="80%" y2="100%">
      <stop offset="0%" stop-color="#081a57" />
      <stop offset="100%" stop-color="#123085" />
    </linearGradient>
    <filter id="softGlow" x="-10%" y="-10%" width="120%" height="120%">
      <feGaussianBlur in="SourceGraphic" stdDeviation="6" result="blur" />
      <feBlend in="SourceGraphic" in2="blur" mode="screen" />
    </filter>
  </defs>
  <rect width="512" height="512" rx="48" fill="url(#backgroundGradient)" />
  <g filter="url(#softGlow)" opacity="0.95">
    <path fill="url(#swirlGradient)" d="M64 208c14-62 120-118 228-108 98 9 138 56 184 32 32-17 40-60 8-88 40 44 10 116-54 134-64 18-112-26-216-12-90 12-148 66-144 116 4 44 46 76 120 88 88 14 158 12 220-12 48-18 88-56 96-104 12 80-34 140-118 168-100 34-232 16-292-48-34-34-44-84-32-166z" />
    <path fill="#7fd6ff" opacity="0.35" d="M120 332c32 40 104 64 176 60 72-4 122-30 152-76-20 60-82 104-164 112-94 10-184-30-208-96z" />
  </g>
  <g transform="translate(76 60)">
    <path fill="url(#silhouetteGradient)" d="M204 100c-58 4-104 60-104 120 0 36 12 66 0 100-10 28 4 50 36 60l16 6-16 32c-8 18 4 36 24 36h168c20 0 32-18 24-36l-18-44 34-40c30-34 22-104-14-150-30-38-80-88-150-84z" />
    <path fill="url(#profileHighlight)" d="M242 120c-34 2-62 26-78 64-12 30-8 70 2 96 10 30 40 48 70 42 44-8 78-66 74-124-4-52-28-78-68-78z" />
    <path fill="url(#collarGradient)" d="M104 330c22 48 74 88 138 90 78 2 134-40 162-108l-38 44c-14 18-28 26-54 26H190c-36 0-60-16-86-52z" />
    <path fill="#06216d" opacity="0.45" d="M214 92c-24 2-44 12-58 30 20-10 46-14 76-4 48 16 80 52 100 90 16 34 14 78 4 104-8 22-16 36-36 52l24-8c24-10 42-34 48-62 8-40-6-100-44-142-36-40-78-60-114-60z" />
  </g>
</svg>
